STARTFONT 2.1
FONT -Monotype-Book Antiqua-Regular-I-Normal--12-120-75-75-P-63-iso8859-9
SIZE 12 75 75
FONTBOUNDINGBOX 15 16 -2 -3

STARTPROPERTIES 24
FOUNDRY "Monotype"
FAMILY_NAME "Book Antiqua"
WEIGHT_NAME "Regular"
SLANT "I"
SETWIDTH_NAME "Normal"
ADD_STYLE_NAME ""
PIXEL_SIZE 12
POINT_SIZE 120
RESOLUTION_X 75
RESOLUTION_Y 75
SPACING "P"
AVERAGE_WIDTH 63
CHARSET_REGISTRY "iso8859"
CHARSET_ENCODING "9"
FACE_NAME "Book Antiqua it ISO Latin5"
_DEC_DEVICE_FONTNAMES "PS=bookantiqua-italic-lat5"
COPYRIGHT "Copyright (c) 1994 Monotype Typography Ltd."
CAP_HEIGHT 11
X_HEIGHT 8
WEIGHT 10
QUAD_WIDTH 7
DEFAULT_CHAR 160
FONT_DESCENT 4
FONT_ASCENT 13
ENDPROPERTIES

CHARS 191

STARTCHAR space
ENCODING 32
SWIDTH 250 0
DWIDTH 3 0
BBX 0 0 0 0
BITMAP
ENDCHAR

STARTCHAR exclam
ENCODING 33
SWIDTH 333 0
DWIDTH 4 0
BBX 3 10 1 0
BITMAP
20
20
20
40
40
40
40
00
80
80
ENDCHAR

STARTCHAR quotedbl
ENCODING 34
SWIDTH 500 0
DWIDTH 7 0
BBX 3 4 2 5
BITMAP
A0
A0
A0
A0
ENDCHAR

STARTCHAR numbersign
ENCODING 35
SWIDTH 606 0
DWIDTH 8 0
BBX 8 9 0 0
BITMAP
12
12
12
7F
24
24
FE
48
48
ENDCHAR

STARTCHAR dollar
ENCODING 36
SWIDTH 500 0
DWIDTH 7 0
BBX 7 11 0 -1
BITMAP
08
1E
2A
50
50
38
14
14
A8
F0
20
ENDCHAR

STARTCHAR percent
ENCODING 37
SWIDTH 889 0
DWIDTH 12 0
BBX 9 9 2 0
BITMAP
2200
5200
9400
A800
4900
1280
2480
2500
4200
ENDCHAR

STARTCHAR ampersand
ENCODING 38
SWIDTH 778 0
DWIDTH 10 0
BBX 10 9 1 0
BITMAP
1C00
2400
2040
3840
4380
8500
8100
4600
3800
ENDCHAR

STARTCHAR quoteright
ENCODING 39
SWIDTH 278 0
DWIDTH 4 0
BBX 3 3 1 7
BITMAP
60
40
80
ENDCHAR

STARTCHAR parenleft
ENCODING 40
SWIDTH 333 0
DWIDTH 4 0
BBX 4 13 0 -3
BITMAP
10
20
20
20
40
40
40
40
80
80
80
80
40
ENDCHAR

STARTCHAR parenright
ENCODING 41
SWIDTH 333 0
DWIDTH 4 0
BBX 4 13 0 -3
BITMAP
20
10
10
10
10
20
20
20
20
40
40
40
80
ENDCHAR

STARTCHAR asterisk
ENCODING 42
SWIDTH 389 0
DWIDTH 5 0
BBX 5 5 0 5
BITMAP
20
A8
70
A8
20
ENDCHAR

STARTCHAR plus
ENCODING 43
SWIDTH 606 0
DWIDTH 8 0
BBX 7 7 1 1
BITMAP
10
10
10
FE
10
10
10
ENDCHAR

STARTCHAR comma
ENCODING 44
SWIDTH 250 0
DWIDTH 3 0
BBX 3 3 0 -2
BITMAP
60
40
80
ENDCHAR

STARTCHAR minus
ENCODING 45
SWIDTH 606 0
DWIDTH 8 0
BBX 6 1 1 4
BITMAP
FC
ENDCHAR

STARTCHAR period
ENCODING 46
SWIDTH 250 0
DWIDTH 3 0
BBX 2 1 1 0
BITMAP
C0
ENDCHAR

STARTCHAR slash
ENCODING 47
SWIDTH 296 0
DWIDTH 4 0
BBX 7 13 -2 -3
BITMAP
02
02
04
04
08
08
10
10
20
20
40
40
80
ENDCHAR

STARTCHAR zero
ENCODING 48
SWIDTH 500 0
DWIDTH 7 0
BBX 6 9 1 0
BITMAP
18
24
44
44
84
88
88
90
60
ENDCHAR

STARTCHAR one
ENCODING 49
SWIDTH 500 0
DWIDTH 7 0
BBX 4 9 2 0
BITMAP
10
70
20
20
20
40
40
40
E0
ENDCHAR

STARTCHAR two
ENCODING 50
SWIDTH 500 0
DWIDTH 7 0
BBX 6 9 1 0
BITMAP
18
24
04
04
08
10
20
40
F8
ENDCHAR

STARTCHAR three
ENCODING 51
SWIDTH 500 0
DWIDTH 7 0
BBX 6 9 1 0
BITMAP
18
24
04
38
08
08
08
90
60
ENDCHAR

STARTCHAR four
ENCODING 52
SWIDTH 500 0
DWIDTH 7 0
BBX 6 9 1 0
BITMAP
04
0C
14
28
28
48
FC
10
38
ENDCHAR

STARTCHAR five
ENCODING 53
SWIDTH 500 0
DWIDTH 7 0
BBX 7 9 1 0
BITMAP
3E
20
20
78
44
04
84
88
70
ENDCHAR

STARTCHAR six
ENCODING 54
SWIDTH 500 0
DWIDTH 7 0
BBX 5 9 1 0
BITMAP
18
20
40
70
88
88
88
90
60
ENDCHAR

STARTCHAR seven
ENCODING 55
SWIDTH 500 0
DWIDTH 7 0
BBX 6 9 1 0
BITMAP
FC
04
08
10
10
20
40
40
80
ENDCHAR

STARTCHAR eight
ENCODING 56
SWIDTH 500 0
DWIDTH 7 0
BBX 6 9 1 0
BITMAP
18
24
44
44
78
88
88
90
60
ENDCHAR

STARTCHAR nine
ENCODING 57
SWIDTH 500 0
DWIDTH 7 0
BBX 5 9 1 0
BITMAP
30
48
88
88
88
70
10
20
C0
ENDCHAR

STARTCHAR colon
ENCODING 58
SWIDTH 250 0
DWIDTH 3 0
BBX 3 6 0 0
BITMAP
60
00
00
00
00
C0
ENDCHAR

STARTCHAR semicolon
ENCODING 59
SWIDTH 250 0
DWIDTH 3 0
BBX 4 8 0 -2
BITMAP
30
00
00
00
00
60
40
80
ENDCHAR

STARTCHAR less
ENCODING 60
SWIDTH 606 0
DWIDTH 8 0
BBX 7 7 1 1
BITMAP
02
0C
30
C0
30
0C
02
ENDCHAR

STARTCHAR equal
ENCODING 61
SWIDTH 606 0
DWIDTH 8 0
BBX 6 3 1 3
BITMAP
FC
00
FC
ENDCHAR

STARTCHAR greater
ENCODING 62
SWIDTH 606 0
DWIDTH 8 0
BBX 7 7 1 1
BITMAP
80
60
18
06
18
60
80
ENDCHAR

STARTCHAR question
ENCODING 63
SWIDTH 500 0
DWIDTH 7 0
BBX 4 10 2 0
BITMAP
60
90
10
10
20
40
80
00
80
80
ENDCHAR

STARTCHAR at
ENCODING 64
SWIDTH 747 0
DWIDTH 10 0
BBX 9 11 0 -2
BITMAP
1F00
2080
4E80
9280
9280
A480
AD00
B680
8080
4100
3E00
ENDCHAR

STARTCHAR A
ENCODING 65
SWIDTH 722 0
DWIDTH 9 0
BBX 8 9 0 0
BITMAP
02
06
06
0A
12
1E
22
42
E7
ENDCHAR

STARTCHAR B
ENCODING 66
SWIDTH 611 0
DWIDTH 8 0
BBX 8 9 0 0
BITMAP
3E
11
11
21
3E
21
41
42
FC
ENDCHAR

STARTCHAR C
ENCODING 67
SWIDTH 667 0
DWIDTH 9 0
BBX 8 9 1 0
BITMAP
1F
21
41
80
80
80
80
42
3C
ENDCHAR

STARTCHAR D
ENCODING 68
SWIDTH 778 0
DWIDTH 10 0
BBX 9 9 1 0
BITMAP
3E00
1100
1080
2080
2080
2080
4100
4300
FC00
ENDCHAR

STARTCHAR E
ENCODING 69
SWIDTH 611 0
DWIDTH 8 0
BBX 8 9 0 0
BITMAP
3F
11
10
20
3C
20
40
42
FE
ENDCHAR

STARTCHAR F
ENCODING 70
SWIDTH 556 0
DWIDTH 7 0
BBX 7 9 0 0
BITMAP
3E
12
10
20
3C
20
40
40
E0
ENDCHAR

STARTCHAR G
ENCODING 71
SWIDTH 722 0
DWIDTH 9 0
BBX 8 9 1 0
BITMAP
1F
21
41
80
80
87
82
42
3C
ENDCHAR

STARTCHAR H
ENCODING 72
SWIDTH 778 0
DWIDTH 10 0
BBX 11 9 0 0
BITMAP
38E0
1040
1040
2080
3F80
2080
4100
4100
E380
ENDCHAR

STARTCHAR I
ENCODING 73
SWIDTH 333 0
DWIDTH 4 0
BBX 5 9 0 0
BITMAP
38
10
10
20
20
20
40
40
E0
ENDCHAR

STARTCHAR J
ENCODING 74
SWIDTH 333 0
DWIDTH 4 0
BBX 5 12 0 -3
BITMAP
38
10
10
10
20
20
20
20
40
40
40
80
ENDCHAR

STARTCHAR K
ENCODING 75
SWIDTH 667 0
DWIDTH 9 0
BBX 9 9 0 0
BITMAP
3B80
1200
1400
2800
3000
2800
4400
4200
E700
ENDCHAR

STARTCHAR L
ENCODING 76
SWIDTH 556 0
DWIDTH 7 0
BBX 7 9 0 0
BITMAP
38
10
10
20
20
20
40
42
FE
ENDCHAR

STARTCHAR M
ENCODING 77
SWIDTH 944 0
DWIDTH 12 0
BBX 13 9 0 0
BITMAP
3018
1030
1050
28A0
28A0
2920
4640
4640
E4E0
ENDCHAR

STARTCHAR N
ENCODING 78
SWIDTH 778 0
DWIDTH 10 0
BBX 11 9 0 0
BITMAP
30E0
1040
1840
2880
2480
2480
4300
4300
E100
ENDCHAR

STARTCHAR O
ENCODING 79
SWIDTH 778 0
DWIDTH 10 0
BBX 9 9 1 0
BITMAP
1E00
2100
4080
8080
8080
8080
8100
4200
3C00
ENDCHAR

STARTCHAR P
ENCODING 80
SWIDTH 611 0
DWIDTH 8 0
BBX 8 9 0 0
BITMAP
3E
11
11
21
22
2C
40
40
E0
ENDCHAR

STARTCHAR Q
ENCODING 81
SWIDTH 778 0
DWIDTH 10 0
BBX 9 11 1 -2
BITMAP
1E00
2100
4080
8080
8080
8080
8100
4200
3C00
4C80
0700
ENDCHAR

STARTCHAR R
ENCODING 82
SWIDTH 667 0
DWIDTH 9 0
BBX 9 9 0 0
BITMAP
3E00
1100
1100
2100
3E00
2400
4200
4100
E380
ENDCHAR

STARTCHAR S
ENCODING 83
SWIDTH 556 0
DWIDTH 7 0
BBX 7 9 0 0
BITMAP
1E
22
40
40
38
04
04
88
F0
ENDCHAR

STARTCHAR T
ENCODING 84
SWIDTH 611 0
DWIDTH 8 0
BBX 7 9 2 0
BITMAP
FE
92
10
20
20
20
40
40
E0
ENDCHAR

STARTCHAR U
ENCODING 85
SWIDTH 778 0
DWIDTH 10 0
BBX 10 9 1 0
BITMAP
61C0
2080
2080
4100
4100
4100
8200
8600
7B00
ENDCHAR

STARTCHAR V
ENCODING 86
SWIDTH 722 0
DWIDTH 9 0
BBX 8 9 2 0
BITMAP
E7
42
44
48
48
50
60
60
40
ENDCHAR

STARTCHAR W
ENCODING 87
SWIDTH 944 0
DWIDTH 12 0
BBX 11 9 2 0
BITMAP
E4E0
4440
4C80
4C80
5500
5500
6600
6600
4400
ENDCHAR

STARTCHAR X
ENCODING 88
SWIDTH 722 0
DWIDTH 9 0
BBX 9 9 1 0
BITMAP
7380
2100
1200
1C00
0800
1800
2400
4400
EE00
ENDCHAR

STARTCHAR Y
ENCODING 89
SWIDTH 667 0
DWIDTH 9 0
BBX 8 9 2 0
BITMAP
C3
42
44
28
30
20
40
40
E0
ENDCHAR

STARTCHAR Z
ENCODING 90
SWIDTH 667 0
DWIDTH 8 0
BBX 9 9 0 0
BITMAP
3F80
2100
0200
0400
0800
1000
2000
4200
FE00
ENDCHAR

STARTCHAR bracketleft
ENCODING 91
SWIDTH 333 0
DWIDTH 4 0
BBX 4 13 0 -3
BITMAP
30
20
20
20
40
40
40
40
40
80
80
80
C0
ENDCHAR

STARTCHAR backslash
ENCODING 92
SWIDTH 606 0
DWIDTH 8 0
BBX 7 13 1 -3
BITMAP
80
80
40
40
20
20
10
10
08
08
04
04
02
ENDCHAR

STARTCHAR bracketright
ENCODING 93
SWIDTH 333 0
DWIDTH 4 0
BBX 4 13 0 -3
BITMAP
30
10
10
10
20
20
20
20
20
40
40
40
C0
ENDCHAR

STARTCHAR asciicircum
ENCODING 94
SWIDTH 606 0
DWIDTH 8 0
BBX 6 5 1 4
BITMAP
10
30
28
48
84
ENDCHAR

STARTCHAR underscore
ENCODING 95
SWIDTH 500 0
DWIDTH 7 0
BBX 7 1 0 -2
BITMAP
FE
ENDCHAR

STARTCHAR quoteleft
ENCODING 96
SWIDTH 278 0
DWIDTH 4 0
BBX 3 3 1 7
BITMAP
20
40
C0
ENDCHAR

STARTCHAR a
ENCODING 97
SWIDTH 444 0
DWIDTH 6 0
BBX 6 6 1 0
BITMAP
38
48
88
90
B4
58
ENDCHAR

STARTCHAR b
ENCODING 98
SWIDTH 463 0
DWIDTH 6 0
BBX 5 10 1 0
BITMAP
20
60
20
20
70
48
48
88
90
60
ENDCHAR

STARTCHAR c
ENCODING 99
SWIDTH 407 0
DWIDTH 5 0
BBX 5 6 1 0
BITMAP
38
48
80
80
90
60
ENDCHAR

STARTCHAR d
ENCODING 100
SWIDTH 500 0
DWIDTH 7 0
BBX 6 10 1 0
BITMAP
04
0C
04
08
38
48
88
90
B4
58
ENDCHAR

STARTCHAR e
ENCODING 101
SWIDTH 389 0
DWIDTH 5 0
BBX 5 6 1 0
BITMAP
38
48
F0
80
90
60
ENDCHAR

STARTCHAR f
ENCODING 102
SWIDTH 278 0
DWIDTH 4 0
BBX 7 13 -1 -3
BITMAP
06
08
08
08
3C
10
10
10
10
20
20
20
C0
ENDCHAR

STARTCHAR g
ENCODING 103
SWIDTH 499 0
DWIDTH 6 0
BBX 7 9 0 -3
BITMAP
1A
24
44
48
30
30
58
84
78
ENDCHAR

STARTCHAR h
ENCODING 104
SWIDTH 500 0
DWIDTH 7 0
BBX 6 10 1 0
BITMAP
20
60
20
40
58
64
44
88
88
8C
ENDCHAR

STARTCHAR i
ENCODING 105
SWIDTH 278 0
DWIDTH 4 0
BBX 4 9 1 0
BITMAP
30
00
00
20
E0
40
40
A0
C0
ENDCHAR

STARTCHAR j
ENCODING 106
SWIDTH 278 0
DWIDTH 4 0
BBX 5 12 0 -3
BITMAP
18
00
00
10
30
10
20
20
20
40
40
80
ENDCHAR

STARTCHAR k
ENCODING 107
SWIDTH 444 0
DWIDTH 6 0
BBX 6 10 1 0
BITMAP
20
60
20
40
4C
50
60
90
94
98
ENDCHAR

STARTCHAR l
ENCODING 108
SWIDTH 278 0
DWIDTH 4 0
BBX 3 10 1 0
BITMAP
20
60
20
40
40
40
40
80
A0
C0
ENDCHAR

STARTCHAR m
ENCODING 109
SWIDTH 778 0
DWIDTH 11 0
BBX 10 6 1 0
BITMAP
5D80
E640
4440
4480
8880
88C0
ENDCHAR

STARTCHAR n
ENCODING 110
SWIDTH 556 0
DWIDTH 7 0
BBX 6 6 1 0
BITMAP
58
E4
44
48
88
8C
ENDCHAR

STARTCHAR o
ENCODING 111
SWIDTH 444 0
DWIDTH 6 0
BBX 5 6 1 0
BITMAP
30
48
88
88
90
60
ENDCHAR

STARTCHAR p
ENCODING 112
SWIDTH 500 0
DWIDTH 7 0
BBX 7 9 0 -3
BITMAP
2C
72
22
22
64
58
40
80
80
ENDCHAR

STARTCHAR q
ENCODING 113
SWIDTH 463 0
DWIDTH 6 0
BBX 6 9 1 -3
BITMAP
34
48
88
98
B0
50
10
20
20
ENDCHAR

STARTCHAR r
ENCODING 114
SWIDTH 389 0
DWIDTH 5 0
BBX 5 6 1 0
BITMAP
58
E0
40
40
80
80
ENDCHAR

STARTCHAR s
ENCODING 115
SWIDTH 389 0
DWIDTH 5 0
BBX 6 6 0 0
BITMAP
3C
44
20
10
88
F0
ENDCHAR

STARTCHAR t
ENCODING 116
SWIDTH 333 0
DWIDTH 4 0
BBX 4 9 1 0
BITMAP
20
20
40
F0
40
40
80
A0
C0
ENDCHAR

STARTCHAR u
ENCODING 117
SWIDTH 556 0
DWIDTH 7 0
BBX 7 6 1 0
BITMAP
44
C4
48
88
9A
6C
ENDCHAR

STARTCHAR v
ENCODING 118
SWIDTH 500 0
DWIDTH 7 0
BBX 6 6 1 0
BITMAP
68
A4
24
44
48
30
ENDCHAR

STARTCHAR w
ENCODING 119
SWIDTH 722 0
DWIDTH 9 0
BBX 9 6 0 0
BITMAP
6500
A480
2480
4880
4900
3600
ENDCHAR

STARTCHAR x
ENCODING 120
SWIDTH 500 0
DWIDTH 6 0
BBX 7 6 0 0
BITMAP
26
5A
10
10
28
C4
ENDCHAR

STARTCHAR y
ENCODING 121
SWIDTH 500 0
DWIDTH 6 0
BBX 7 9 0 -3
BITMAP
22
52
14
24
24
18
08
90
60
ENDCHAR

STARTCHAR z
ENCODING 122
SWIDTH 444 0
DWIDTH 5 0
BBX 6 6 0 0
BITMAP
3C
48
10
20
48
F0
ENDCHAR

STARTCHAR braceleft
ENCODING 123
SWIDTH 333 0
DWIDTH 4 0
BBX 4 13 0 -3
BITMAP
10
20
20
20
40
40
80
40
40
40
80
80
40
ENDCHAR

STARTCHAR bar
ENCODING 124
SWIDTH 606 0
DWIDTH 8 0
BBX 1 13 4 -3
BITMAP
80
80
80
80
80
80
80
80
80
80
80
80
80
ENDCHAR

STARTCHAR braceright
ENCODING 125
SWIDTH 333 0
DWIDTH 4 0
BBX 4 13 0 -3
BITMAP
20
10
10
20
20
20
10
20
20
40
40
40
80
ENDCHAR

STARTCHAR asciitilde
ENCODING 126
SWIDTH 606 0
DWIDTH 8 0
BBX 6 2 1 4
BITMAP
64
98
ENDCHAR

STARTCHAR space
ENCODING 160
SWIDTH 250 0
DWIDTH 4 0
BBX 0 0 0 0
BITMAP
ENDCHAR

STARTCHAR exclamdown
ENCODING 161
SWIDTH 333 0
DWIDTH 4 0
BBX 3 10 1 -3
BITMAP
20
20
00
40
40
40
40
80
80
80
ENDCHAR

STARTCHAR cent
ENCODING 162
SWIDTH 500 0
DWIDTH 7 0
BBX 6 9 1 0
BITMAP
08
3C
54
90
A0
A8
70
20
20
ENDCHAR

STARTCHAR sterling
ENCODING 163
SWIDTH 500 0
DWIDTH 7 0
BBX 6 9 1 0
BITMAP
1C
24
20
20
F8
40
40
48
F8
ENDCHAR

STARTCHAR currency
ENCODING 164
SWIDTH 606 0
DWIDTH 8 0
BBX 7 7 1 1
BITMAP
BA
44
82
82
82
44
BA
ENDCHAR

STARTCHAR yen
ENCODING 165
SWIDTH 667 0
DWIDTH 9 0
BBX 9 9 1 0
BITMAP
6180
2100
2200
1400
7E00
1000
FC00
2000
7000
ENDCHAR

STARTCHAR brokenbar
ENCODING 166
SWIDTH 606 0
DWIDTH 8 0
BBX 1 13 4 -3
BITMAP
80
80
80
80
80
80
00
80
80
80
80
80
80
ENDCHAR

STARTCHAR section
ENCODING 167
SWIDTH 500 0
DWIDTH 7 0
BBX 6 13 0 -3
BITMAP
1C
24
20
30
28
44
44
44
28
18
08
88
F0
ENDCHAR

STARTCHAR dieresis
ENCODING 168
SWIDTH 333 0
DWIDTH 4 0
BBX 3 1 2 7
BITMAP
A0
ENDCHAR

STARTCHAR copyright
ENCODING 169
SWIDTH 747 0
DWIDTH 10 0
BBX 9 9 1 0
BITMAP
3E00
4100
9E80
A280
A080
A280
9C80
4100
3E00
ENDCHAR

STARTCHAR ordfeminine
ENCODING 170
SWIDTH 333 0
DWIDTH 4 0
BBX 4 4 1 6
BITMAP
70
90
A0
D0
ENDCHAR

STARTCHAR guillemotleft
ENCODING 171
SWIDTH 500 0
DWIDTH 7 0
BBX 5 4 2 1
BITMAP
48
90
90
90
ENDCHAR

STARTCHAR logicalnot
ENCODING 172
SWIDTH 606 0
DWIDTH 8 0
BBX 6 3 1 3
BITMAP
FC
04
04
ENDCHAR

STARTCHAR hyphen
ENCODING 173
SWIDTH 333 0
DWIDTH 4 0
BBX 4 1 0 3
BITMAP
F0
ENDCHAR

STARTCHAR registered
ENCODING 174
SWIDTH 747 0
DWIDTH 10 0
BBX 10 9 0 0
BITMAP
3F00
4080
9C40
9240
9E40
9440
9240
4080
3F00
ENDCHAR

STARTCHAR macron
ENCODING 175
SWIDTH 333 0
DWIDTH 4 0
BBX 3 1 2 7
BITMAP
E0
ENDCHAR

STARTCHAR degree
ENCODING 176
SWIDTH 402 0
DWIDTH 5 0
BBX 4 4 1 5
BITMAP
60
90
90
60
ENDCHAR

STARTCHAR plusminus
ENCODING 177
SWIDTH 606 0
DWIDTH 8 0
BBX 7 9 1 0
BITMAP
10
10
10
FE
10
10
10
00
FE
ENDCHAR

STARTCHAR twosuperior
ENCODING 178
SWIDTH 310 0
DWIDTH 4 0
BBX 4 5 0 4
BITMAP
60
10
20
40
E0
ENDCHAR

STARTCHAR threesuperior
ENCODING 179
SWIDTH 310 0
DWIDTH 4 0
BBX 4 5 0 4
BITMAP
70
10
20
90
60
ENDCHAR

STARTCHAR acute
ENCODING 180
SWIDTH 333 0
DWIDTH 4 0
BBX 2 2 2 7
BITMAP
40
80
ENDCHAR

STARTCHAR mu
ENCODING 181
SWIDTH 598 0
DWIDTH 8 0
BBX 7 8 1 -2
BITMAP
22
22
44
44
4C
B6
80
80
ENDCHAR

STARTCHAR paragraph
ENCODING 182
SWIDTH 500 0
DWIDTH 7 0
BBX 7 12 1 -3
BITMAP
7E
F4
F4
F4
F4
74
14
14
14
14
14
14
ENDCHAR

STARTCHAR periodcentered
ENCODING 183
SWIDTH 250 0
DWIDTH 3 0
BBX 2 2 1 3
BITMAP
C0
C0
ENDCHAR

STARTCHAR cedilla
ENCODING 184
SWIDTH 333 0
DWIDTH 4 0
BBX 3 3 0 -3
BITMAP
40
20
C0
ENDCHAR

STARTCHAR onesuperior
ENCODING 185
SWIDTH 310 0
DWIDTH 5 0
BBX 3 5 1 4
BITMAP
20
E0
40
40
E0
ENDCHAR

STARTCHAR ordmasculine
ENCODING 186
SWIDTH 333 0
DWIDTH 4 0
BBX 4 5 0 5
BITMAP
20
50
90
A0
C0
ENDCHAR

STARTCHAR guillemotright
ENCODING 187
SWIDTH 500 0
DWIDTH 7 0
BBX 5 4 1 1
BITMAP
48
48
48
90
ENDCHAR

STARTCHAR onequarter
ENCODING 188
SWIDTH 788 0
DWIDTH 12 0
BBX 10 9 1 0
BITMAP
2200
E200
4400
4800
E880
1180
2280
27C0
4100
ENDCHAR

STARTCHAR onehalf
ENCODING 189
SWIDTH 788 0
DWIDTH 12 0
BBX 9 9 2 0
BITMAP
2200
E200
4400
4800
EB00
1080
2100
2200
4700
ENDCHAR

STARTCHAR threequarters
ENCODING 190
SWIDTH 788 0
DWIDTH 10 0
BBX 10 9 0 0
BITMAP
7100
1100
2200
9400
6480
0980
1280
17C0
2100
ENDCHAR

STARTCHAR questiondown
ENCODING 191
SWIDTH 500 0
DWIDTH 7 0
BBX 4 10 2 -3
BITMAP
10
10
00
10
20
40
80
80
90
60
ENDCHAR

STARTCHAR Agrave
ENCODING 192
SWIDTH 722 0
DWIDTH 9 0
BBX 8 12 0 0
BITMAP
04
02
00
02
06
06
0A
12
1E
22
42
E7
ENDCHAR

STARTCHAR Aacute
ENCODING 193
SWIDTH 722 0
DWIDTH 9 0
BBX 8 12 0 0
BITMAP
01
02
00
02
06
06
0A
12
1E
22
42
E7
ENDCHAR

STARTCHAR Acircumflex
ENCODING 194
SWIDTH 722 0
DWIDTH 9 0
BBX 8 12 0 0
BITMAP
02
05
00
02
06
06
0A
12
1E
22
42
E7
ENDCHAR

STARTCHAR Atilde
ENCODING 195
SWIDTH 722 0
DWIDTH 9 0
BBX 10 12 0 0
BITMAP
0340
0580
0000
0200
0600
0600
0A00
1200
1E00
2200
4200
E700
ENDCHAR

STARTCHAR Adieresis
ENCODING 196
SWIDTH 722 0
DWIDTH 9 0
BBX 9 11 0 0
BITMAP
0480
0000
0200
0600
0600
0A00
1200
1E00
2200
4200
E700
ENDCHAR

STARTCHAR Aring
ENCODING 197
SWIDTH 722 0
DWIDTH 9 0
BBX 8 13 0 0
BITMAP
02
05
02
00
02
06
06
0A
12
1E
22
42
E7
ENDCHAR

STARTCHAR AE
ENCODING 198
SWIDTH 941 0
DWIDTH 12 0
BBX 12 9 0 0
BITMAP
0FF0
0510
0900
0900
11E0
1E00
2200
4220
E7E0
ENDCHAR

STARTCHAR Ccedilla
ENCODING 199
SWIDTH 667 0
DWIDTH 9 0
BBX 8 12 1 -3
BITMAP
1F
21
41
80
80
80
80
42
3C
10
08
30
ENDCHAR

STARTCHAR Egrave
ENCODING 200
SWIDTH 611 0
DWIDTH 8 0
BBX 8 12 0 0
BITMAP
08
04
00
3F
11
10
20
3C
20
40
42
FE
ENDCHAR

STARTCHAR Eacute
ENCODING 201
SWIDTH 611 0
DWIDTH 8 0
BBX 8 12 0 0
BITMAP
02
04
00
3F
11
10
20
3C
20
40
42
FE
ENDCHAR

STARTCHAR Ecircumflex
ENCODING 202
SWIDTH 611 0
DWIDTH 8 0
BBX 8 12 0 0
BITMAP
04
0A
00
3F
11
10
20
3C
20
40
42
FE
ENDCHAR

STARTCHAR Edieresis
ENCODING 203
SWIDTH 611 0
DWIDTH 8 0
BBX 8 11 0 0
BITMAP
09
00
3F
11
10
20
3C
20
40
42
FE
ENDCHAR

STARTCHAR Igrave
ENCODING 204
SWIDTH 333 0
DWIDTH 4 0
BBX 5 12 0 0
BITMAP
20
10
00
38
10
10
20
20
20
40
40
E0
ENDCHAR

STARTCHAR Iacute
ENCODING 205
SWIDTH 333 0
DWIDTH 4 0
BBX 5 12 0 0
BITMAP
08
10
00
38
10
10
20
20
20
40
40
E0
ENDCHAR

STARTCHAR Icircumflex
ENCODING 206
SWIDTH 333 0
DWIDTH 4 0
BBX 6 12 0 0
BITMAP
08
14
00
38
10
10
20
20
20
40
40
E0
ENDCHAR

STARTCHAR Idieresis
ENCODING 207
SWIDTH 333 0
DWIDTH 4 0
BBX 6 11 0 0
BITMAP
24
00
38
10
10
20
20
20
40
40
E0
ENDCHAR

STARTCHAR Gbreve
ENCODING 208
SWIDTH 722 0
DWIDTH 9 0
BBX 8 12 1 0
BITMAP
12
0C
00
1F
21
41
80
80
87
82
42
3C
ENDCHAR

STARTCHAR Ntilde
ENCODING 209
SWIDTH 778 0
DWIDTH 10 0
BBX 11 12 0 0
BITMAP
0680
0B00
0000
30E0
1040
1840
2880
2480
2480
4300
4300
E100
ENDCHAR

STARTCHAR Ograve
ENCODING 210
SWIDTH 778 0
DWIDTH 10 0
BBX 9 12 1 0
BITMAP
0800
0400
0000
1E00
2100
4080
8080
8080
8080
8100
4200
3C00
ENDCHAR

STARTCHAR Oacute
ENCODING 211
SWIDTH 778 0
DWIDTH 10 0
BBX 9 12 1 0
BITMAP
0200
0400
0000
1E00
2100
4080
8080
8080
8080
8100
4200
3C00
ENDCHAR

STARTCHAR Ocircumflex
ENCODING 212
SWIDTH 778 0
DWIDTH 10 0
BBX 9 12 1 0
BITMAP
0400
0A00
0000
1E00
2100
4080
8080
8080
8080
8100
4200
3C00
ENDCHAR

STARTCHAR Otilde
ENCODING 213
SWIDTH 778 0
DWIDTH 10 0
BBX 9 12 1 0
BITMAP
0D00
1600
0000
1E00
2100
4080
8080
8080
8080
8100
4200
3C00
ENDCHAR

STARTCHAR Odieresis
ENCODING 214
SWIDTH 778 0
DWIDTH 10 0
BBX 9 11 1 0
BITMAP
0900
0000
1E00
2100
4080
8080
8080
8080
8100
4200
3C00
ENDCHAR

STARTCHAR multiply
ENCODING 215
SWIDTH 606 0
DWIDTH 8 0
BBX 5 5 2 2
BITMAP
88
50
20
50
88
ENDCHAR

STARTCHAR Oslash
ENCODING 216
SWIDTH 778 0
DWIDTH 10 0
BBX 9 9 1 0
BITMAP
1E80
2100
4280
8480
8880
9080
A100
4200
BC00
ENDCHAR

STARTCHAR Ugrave
ENCODING 217
SWIDTH 778 0
DWIDTH 10 0
BBX 10 12 1 0
BITMAP
0800
0400
0000
61C0
2080
2080
4100
4100
4100
8200
8600
7B00
ENDCHAR

STARTCHAR Uacute
ENCODING 218
SWIDTH 778 0
DWIDTH 10 0
BBX 10 12 1 0
BITMAP
0200
0400
0000
61C0
2080
2080
4100
4100
4100
8200
8600
7B00
ENDCHAR

STARTCHAR Ucircumflex
ENCODING 219
SWIDTH 778 0
DWIDTH 10 0
BBX 10 12 1 0
BITMAP
0400
0A00
0000
61C0
2080
2080
4100
4100
4100
8200
8600
7B00
ENDCHAR

STARTCHAR Udieresis
ENCODING 220
SWIDTH 778 0
DWIDTH 10 0
BBX 10 11 1 0
BITMAP
0900
0000
61C0
2080
2080
4100
4100
4100
8200
8600
7B00
ENDCHAR

STARTCHAR Idotaccent
ENCODING 221
SWIDTH 333 0
DWIDTH 4 0
BBX 5 11 0 0
BITMAP
08
00
38
10
10
20
20
20
40
40
E0
ENDCHAR

STARTCHAR Scedilla
ENCODING 222
SWIDTH 556 0
DWIDTH 7 0
BBX 7 12 0 -3
BITMAP
1E
22
40
40
38
04
04
88
F0
20
10
60
ENDCHAR

STARTCHAR germandbls
ENCODING 223
SWIDTH 500 0
DWIDTH 7 0
BBX 9 13 -2 -3
BITMAP
0300
0480
0880
0900
1A00
0900
0900
1100
1100
1600
1000
2000
C000
ENDCHAR

STARTCHAR agrave
ENCODING 224
SWIDTH 444 0
DWIDTH 6 0
BBX 6 9 1 0
BITMAP
20
10
00
38
48
88
90
B4
58
ENDCHAR

STARTCHAR aacute
ENCODING 225
SWIDTH 444 0
DWIDTH 6 0
BBX 6 9 1 0
BITMAP
08
10
00
38
48
88
90
B4
58
ENDCHAR

STARTCHAR acircumflex
ENCODING 226
SWIDTH 444 0
DWIDTH 6 0
BBX 6 9 1 0
BITMAP
10
28
00
38
48
88
90
B4
58
ENDCHAR

STARTCHAR atilde
ENCODING 227
SWIDTH 444 0
DWIDTH 6 0
BBX 7 9 1 0
BITMAP
1A
2C
00
38
48
88
90
B4
58
ENDCHAR

STARTCHAR adieresis
ENCODING 228
SWIDTH 444 0
DWIDTH 6 0
BBX 6 8 1 0
BITMAP
24
00
38
48
88
90
B4
58
ENDCHAR

STARTCHAR aring
ENCODING 229
SWIDTH 444 0
DWIDTH 6 0
BBX 6 10 1 0
BITMAP
10
28
10
00
38
48
88
90
B4
58
ENDCHAR

STARTCHAR ae
ENCODING 230
SWIDTH 638 0
DWIDTH 8 0
BBX 9 6 -1 0
BITMAP
3B80
0480
3F00
4800
9900
6600
ENDCHAR

STARTCHAR ccedilla
ENCODING 231
SWIDTH 407 0
DWIDTH 5 0
BBX 5 9 1 -3
BITMAP
38
48
80
80
90
60
40
20
C0
ENDCHAR

STARTCHAR egrave
ENCODING 232
SWIDTH 389 0
DWIDTH 5 0
BBX 5 9 1 0
BITMAP
20
10
00
38
48
F0
80
90
60
ENDCHAR

STARTCHAR eacute
ENCODING 233
SWIDTH 389 0
DWIDTH 5 0
BBX 5 9 1 0
BITMAP
08
10
00
38
48
F0
80
90
60
ENDCHAR

STARTCHAR ecircumflex
ENCODING 234
SWIDTH 389 0
DWIDTH 5 0
BBX 5 9 1 0
BITMAP
10
28
00
38
48
F0
80
90
60
ENDCHAR

STARTCHAR edieresis
ENCODING 235
SWIDTH 389 0
DWIDTH 5 0
BBX 6 8 1 0
BITMAP
24
00
38
48
F0
80
90
60
ENDCHAR

STARTCHAR igrave
ENCODING 236
SWIDTH 278 0
DWIDTH 4 0
BBX 3 9 1 0
BITMAP
40
20
00
20
E0
40
40
A0
C0
ENDCHAR

STARTCHAR iacute
ENCODING 237
SWIDTH 278 0
DWIDTH 4 0
BBX 4 9 1 0
BITMAP
10
20
00
20
E0
40
40
A0
C0
ENDCHAR

STARTCHAR icircumflex
ENCODING 238
SWIDTH 278 0
DWIDTH 4 0
BBX 4 9 1 0
BITMAP
20
50
00
20
E0
40
40
A0
C0
ENDCHAR

STARTCHAR idieresis
ENCODING 239
SWIDTH 278 0
DWIDTH 4 0
BBX 5 8 1 0
BITMAP
48
00
20
E0
40
40
A0
C0
ENDCHAR

STARTCHAR gbreve
ENCODING 240
SWIDTH 499 0
DWIDTH 6 0
BBX 7 12 0 -3
BITMAP
12
0C
00
1A
24
44
48
30
30
58
84
78
ENDCHAR

STARTCHAR ntilde
ENCODING 241
SWIDTH 556 0
DWIDTH 7 0
BBX 7 9 1 0
BITMAP
1A
2C
00
58
E4
44
48
88
8C
ENDCHAR

STARTCHAR ograve
ENCODING 242
SWIDTH 444 0
DWIDTH 6 0
BBX 5 9 1 0
BITMAP
20
10
00
30
48
88
88
90
60
ENDCHAR

STARTCHAR oacute
ENCODING 243
SWIDTH 444 0
DWIDTH 6 0
BBX 5 9 1 0
BITMAP
08
10
00
30
48
88
88
90
60
ENDCHAR

STARTCHAR ocircumflex
ENCODING 244
SWIDTH 444 0
DWIDTH 6 0
BBX 5 9 1 0
BITMAP
10
28
00
30
48
88
88
90
60
ENDCHAR

STARTCHAR otilde
ENCODING 245
SWIDTH 444 0
DWIDTH 6 0
BBX 6 9 1 0
BITMAP
34
58
00
30
48
88
88
90
60
ENDCHAR

STARTCHAR odieresis
ENCODING 246
SWIDTH 444 0
DWIDTH 6 0
BBX 6 8 1 0
BITMAP
24
00
30
48
88
88
90
60
ENDCHAR

STARTCHAR divide
ENCODING 247
SWIDTH 606 0
DWIDTH 8 0
BBX 7 5 1 2
BITMAP
10
00
FE
00
10
ENDCHAR

STARTCHAR oslash
ENCODING 248
SWIDTH 444 0
DWIDTH 6 0
BBX 5 6 1 0
BITMAP
38
58
A8
A8
D0
E0
ENDCHAR

STARTCHAR ugrave
ENCODING 249
SWIDTH 556 0
DWIDTH 7 0
BBX 7 9 1 0
BITMAP
20
10
00
44
C4
48
88
9A
6C
ENDCHAR

STARTCHAR uacute
ENCODING 250
SWIDTH 556 0
DWIDTH 7 0
BBX 7 9 1 0
BITMAP
08
10
00
44
C4
48
88
9A
6C
ENDCHAR

STARTCHAR ucircumflex
ENCODING 251
SWIDTH 556 0
DWIDTH 7 0
BBX 7 9 1 0
BITMAP
10
28
00
44
C4
48
88
9A
6C
ENDCHAR

STARTCHAR udieresis
ENCODING 252
SWIDTH 556 0
DWIDTH 7 0
BBX 7 8 1 0
BITMAP
24
00
44
C4
48
88
9A
6C
ENDCHAR

STARTCHAR dotlessi
ENCODING 253
SWIDTH 278 0
DWIDTH 4 0
BBX 3 6 1 0
BITMAP
20
E0
40
40
A0
C0
ENDCHAR

STARTCHAR scedilla
ENCODING 254
SWIDTH 389 0
DWIDTH 5 0
BBX 6 9 0 -3
BITMAP
3C
44
20
10
88
F0
20
10
60
ENDCHAR

STARTCHAR ydieresis
ENCODING 255
SWIDTH 500 0
DWIDTH 6 0
BBX 7 11 0 -3
BITMAP
12
00
22
52
14
24
24
18
08
90
60
ENDCHAR
ENDFONT
